<svg id="visual" viewBox="0 0 1920 1080" width="1920" height="1080" xmlns="http://www.w3.org/2000/svg" xmlns:xlink="http://www.w3.org/1999/xlink" version="1.1"><rect x="0" y="0" width="1920" height="1080" fill="#FFFF77"></rect><defs><linearGradient id="grad1_0" x1="43.8%" y1="0%" x2="100%" y2="100%"><stop offset="14.444444444444446%" stop-color="#ffffc9" stop-opacity="1"></stop><stop offset="85.55555555555554%" stop-color="#ffffc9" stop-opacity="1"></stop></linearGradient></defs><defs><linearGradient id="grad1_1" x1="43.8%" y1="0%" x2="100%" y2="100%"><stop offset="14.444444444444446%" stop-color="#ffffc9" stop-opacity="1"></stop><stop offset="85.55555555555554%" stop-color="#ffffb6" stop-opacity="1"></stop></linearGradient></defs><defs><linearGradient id="grad1_2" x1="43.8%" y1="0%" x2="100%" y2="100%"><stop offset="14.444444444444446%" stop-color="#ffffa2" stop-opacity="1"></stop><stop offset="85.55555555555554%" stop-color="#ffffb6" stop-opacity="1"></stop></linearGradient></defs><defs><linearGradient id="grad1_3" x1="43.8%" y1="0%" x2="100%" y2="100%"><stop offset="14.444444444444446%" stop-color="#ffffa2" stop-opacity="1"></stop><stop offset="85.55555555555554%" stop-color="#ffff8d" stop-opacity="1"></stop></linearGradient></defs><defs><linearGradient id="grad1_4" x1="43.8%" y1="0%" x2="100%" y2="100%"><stop offset="14.444444444444446%" stop-color="#ffff77" stop-opacity="1"></stop><stop offset="85.55555555555554%" stop-color="#ffff8d" stop-opacity="1"></stop></linearGradient></defs><defs><linearGradient id="grad2_0" x1="0%" y1="0%" x2="56.3%" y2="100%"><stop offset="14.444444444444446%" stop-color="#ffffc9" stop-opacity="1"></stop><stop offset="85.55555555555554%" stop-color="#ffffc9" stop-opacity="1"></stop></linearGradient></defs><defs><linearGradient id="grad2_1" x1="0%" y1="0%" x2="56.3%" y2="100%"><stop offset="14.444444444444446%" stop-color="#ffffb6" stop-opacity="1"></stop><stop offset="85.55555555555554%" stop-color="#ffffc9" stop-opacity="1"></stop></linearGradient></defs><defs><linearGradient id="grad2_2" x1="0%" y1="0%" x2="56.3%" y2="100%"><stop offset="14.444444444444446%" stop-color="#ffffb6" stop-opacity="1"></stop><stop offset="85.55555555555554%" stop-color="#ffffa2" stop-opacity="1"></stop></linearGradient></defs><defs><linearGradient id="grad2_3" x1="0%" y1="0%" x2="56.3%" y2="100%"><stop offset="14.444444444444446%" stop-color="#ffff8d" stop-opacity="1"></stop><stop offset="85.55555555555554%" stop-color="#ffffa2" stop-opacity="1"></stop></linearGradient></defs><defs><linearGradient id="grad2_4" x1="0%" y1="0%" x2="56.3%" y2="100%"><stop offset="14.444444444444446%" stop-color="#ffff8d" stop-opacity="1"></stop><stop offset="85.55555555555554%" stop-color="#ffff77" stop-opacity="1"></stop></linearGradient></defs><g transform="translate(1920, 0)"><path d="M0 972C-136.2 960.7 -272.4 949.4 -364.7 880.5C-457 811.5 -505.4 684.8 -598.2 598.2C-691 511.6 -828.3 465 -898 372C-967.7 278.9 -969.9 139.5 -972 0L0 0Z" fill="#ffff82"></path><path d="M0 777.6C-109 768.6 -217.9 759.5 -291.8 704.4C-365.6 649.2 -404.3 547.9 -478.6 478.6C-552.8 409.3 -662.6 372 -718.4 297.6C-774.2 223.2 -775.9 111.6 -777.6 0L0 0Z" fill="#ffff97"></path><path d="M0 583.2C-81.7 576.4 -163.4 569.7 -218.8 528.3C-274.2 486.9 -303.2 410.9 -358.9 358.9C-414.6 307 -497 279 -538.8 223.2C-580.6 167.4 -581.9 83.7 -583.2 0L0 0Z" fill="#ffffac"></path><path d="M0 388.8C-54.5 384.3 -109 379.8 -145.9 352.2C-182.8 324.6 -202.2 273.9 -239.3 239.3C-276.4 204.6 -331.3 186 -359.2 148.8C-387.1 111.6 -387.9 55.8 -388.8 0L0 0Z" fill="#ffffbf"></path><path d="M0 194.4C-27.2 192.1 -54.5 189.9 -72.9 176.1C-91.4 162.3 -101.1 137 -119.6 119.6C-138.2 102.3 -165.7 93 -179.6 74.4C-193.5 55.8 -194 27.9 -194.4 0L0 0Z" fill="#ffffc9"></path></g><g transform="translate(0, 1080)"><path d="M0 -972C130.6 -960.8 261.2 -949.6 372 -898C482.7 -846.4 573.6 -754.4 662.6 -662.6C751.5 -570.7 838.5 -478.9 889.7 -368.5C940.9 -258.1 956.5 -129.1 972 0L0 0Z" fill="#ffff82"></path><path d="M0 -777.6C104.5 -768.6 209 -759.7 297.6 -718.4C386.2 -677.1 458.9 -603.5 530 -530C601.2 -456.5 670.8 -383.1 711.8 -294.8C752.8 -206.5 765.2 -103.2 777.6 0L0 0Z" fill="#ffff97"></path><path d="M0 -583.2C78.4 -576.5 156.7 -569.8 223.2 -538.8C289.6 -507.9 344.2 -452.7 397.5 -397.5C450.9 -342.4 503.1 -287.4 533.8 -221.1C564.6 -154.9 573.9 -77.4 583.2 0L0 0Z" fill="#ffffac"></path><path d="M0 -388.8C52.2 -384.3 104.5 -379.8 148.8 -359.2C193.1 -338.6 229.5 -301.8 265 -265C300.6 -228.3 335.4 -191.6 355.9 -147.4C376.4 -103.2 382.6 -51.6 388.8 0L0 0Z" fill="#ffffbf"></path><path d="M0 -194.4C26.1 -192.2 52.2 -189.9 74.4 -179.6C96.5 -169.3 114.7 -150.9 132.5 -132.5C150.3 -114.1 167.7 -95.8 177.9 -73.7C188.2 -51.6 191.3 -25.8 194.4 0L0 0Z" fill="#ffffc9"></path></g></svg>