<svg id="visual" viewBox="0 0 1920 1080" width="1920" height="1080" xmlns="http://www.w3.org/2000/svg" xmlns:xlink="http://www.w3.org/1999/xlink" version="1.1"><rect x="0" y="0" width="1920" height="1080" fill="#e36905"></rect><defs><linearGradient id="grad1_0" x1="43.8%" y1="0%" x2="100%" y2="100%"><stop offset="14.444444444444446%" stop-color="#fcaf3c" stop-opacity="1"></stop><stop offset="85.55555555555554%" stop-color="#fcaf3c" stop-opacity="1"></stop></linearGradient></defs><defs><linearGradient id="grad1_1" x1="43.8%" y1="0%" x2="100%" y2="100%"><stop offset="14.444444444444446%" stop-color="#fcaf3c" stop-opacity="1"></stop><stop offset="85.55555555555554%" stop-color="#f49829" stop-opacity="1"></stop></linearGradient></defs><defs><linearGradient id="grad1_2" x1="43.8%" y1="0%" x2="100%" y2="100%"><stop offset="14.444444444444446%" stop-color="#ec8117" stop-opacity="1"></stop><stop offset="85.55555555555554%" stop-color="#f49829" stop-opacity="1"></stop></linearGradient></defs><defs><linearGradient id="grad1_3" x1="43.8%" y1="0%" x2="100%" y2="100%"><stop offset="14.444444444444446%" stop-color="#ec8117" stop-opacity="1"></stop><stop offset="85.55555555555554%" stop-color="#e36905" stop-opacity="1"></stop></linearGradient></defs><defs><linearGradient id="grad2_0" x1="0%" y1="0%" x2="56.3%" y2="100%"><stop offset="14.444444444444446%" stop-color="#fcaf3c" stop-opacity="1"></stop><stop offset="85.55555555555554%" stop-color="#fcaf3c" stop-opacity="1"></stop></linearGradient></defs><defs><linearGradient id="grad2_1" x1="0%" y1="0%" x2="56.3%" y2="100%"><stop offset="14.444444444444446%" stop-color="#f49829" stop-opacity="1"></stop><stop offset="85.55555555555554%" stop-color="#fcaf3c" stop-opacity="1"></stop></linearGradient></defs><defs><linearGradient id="grad2_2" x1="0%" y1="0%" x2="56.3%" y2="100%"><stop offset="14.444444444444446%" stop-color="#f49829" stop-opacity="1"></stop><stop offset="85.55555555555554%" stop-color="#ec8117" stop-opacity="1"></stop></linearGradient></defs><defs><linearGradient id="grad2_3" x1="0%" y1="0%" x2="56.3%" y2="100%"><stop offset="14.444444444444446%" stop-color="#e36905" stop-opacity="1"></stop><stop offset="85.55555555555554%" stop-color="#ec8117" stop-opacity="1"></stop></linearGradient></defs><g transform="translate(1920, 0)"><path d="M0 972C-117.6 935.7 -235.3 899.4 -355.5 858.3C-475.8 817.1 -598.7 771.1 -687.3 687.3C-776 603.6 -830.4 482.1 -872.1 361.3C-913.9 240.4 -942.9 120.2 -972 0L0 0Z" fill="#e7750e"></path><path d="M0 729C-88.2 701.8 -176.4 674.6 -266.6 643.7C-356.8 612.8 -449 578.3 -515.5 515.5C-582 452.7 -622.8 361.6 -654.1 270.9C-685.4 180.3 -707.2 90.2 -729 0L0 0Z" fill="#f08d20"></path><path d="M0 486C-58.8 467.9 -117.6 449.7 -177.8 429.1C-237.9 408.6 -299.3 385.5 -343.7 343.7C-388 301.8 -415.2 241 -436.1 180.6C-456.9 120.2 -471.5 60.1 -486 0L0 0Z" fill="#f8a432"></path><path d="M0 243C-29.4 233.9 -58.8 224.9 -88.9 214.6C-118.9 204.3 -149.7 192.8 -171.8 171.8C-194 150.9 -207.6 120.5 -218 90.3C-228.5 60.1 -235.7 30.1 -243 0L0 0Z" fill="#fcaf3c"></path></g><g transform="translate(0, 1080)"><path d="M0 -972C131.1 -963.6 262.1 -955.2 372 -898C481.8 -840.8 570.5 -734.9 631.4 -631.4C692.4 -528 725.8 -427 777.9 -322.2C830.1 -217.4 901 -108.7 972 0L0 0Z" fill="#e7750e"></path><path d="M0 -729C98.3 -722.7 196.6 -716.4 279 -673.5C361.4 -630.6 427.8 -551.2 473.6 -473.6C519.3 -396 544.3 -320.3 583.4 -241.7C622.5 -163 675.8 -81.5 729 0L0 0Z" fill="#f08d20"></path><path d="M0 -486C65.5 -481.8 131.1 -477.6 186 -449C240.9 -420.4 285.2 -367.4 315.7 -315.7C346.2 -264 362.9 -213.5 389 -161.1C415 -108.7 450.5 -54.3 486 0L0 0Z" fill="#f8a432"></path><path d="M0 -243C32.8 -240.9 65.5 -238.8 93 -224.5C120.5 -210.2 142.6 -183.7 157.9 -157.9C173.1 -132 181.4 -106.8 194.5 -80.6C207.5 -54.3 225.3 -27.2 243 0L0 0Z" fill="#fcaf3c"></path></g></svg>