<svg id="visual" viewBox="0 0 250 380" width="250" height="380" xmlns="http://www.w3.org/2000/svg" xmlns:xlink="http://www.w3.org/1999/xlink" version="1.1"><g stroke-width="1" stroke-linejoin="bevel"><path d="M133 194L137 284L250 288Z" fill="#ffff7f" stroke="#ffff7f"></path><path d="M250 288L250 176L133 194Z" fill="#ffffb8" stroke="#ffffb8"></path><path d="M137 284L250 380L250 288Z" fill="#ffff77" stroke="#ffff77"></path><path d="M250 176L129 93L133 194Z" fill="#ffffa3" stroke="#ffffa3"></path><path d="M250 176L250 82L129 93Z" fill="#ffffa3" stroke="#ffffa3"></path><path d="M0 268L108 380L137 284Z" fill="#ffffb8" stroke="#ffffb8"></path><path d="M137 284L108 380L250 380Z" fill="#ffff9c" stroke="#ffff9c"></path><path d="M0 268L137 284L133 194Z" fill="#ffff9c" stroke="#ffff9c"></path><path d="M0 190L0 268L133 194Z" fill="#ffffb8" stroke="#ffffb8"></path><path d="M0 113L0 190L133 194Z" fill="#ffffb1" stroke="#ffffb1"></path><path d="M129 93L0 113L133 194Z" fill="#ffff77" stroke="#ffff77"></path><path d="M0 268L0 380L108 380Z" fill="#ffff8e" stroke="#ffff8e"></path><path d="M250 82L250 0L129 93Z" fill="#ffff9c" stroke="#ffff9c"></path><path d="M129 93L106 0L0 113Z" fill="#ffffa3" stroke="#ffffa3"></path><path d="M250 0L106 0L129 93Z" fill="#ffff7f" stroke="#ffff7f"></path><path d="M106 0L0 0L0 113Z" fill="#ffffbf" stroke="#ffffbf"></path></g></svg>