<svg id="visual" viewBox="0 0 900 600" width="900" height="600" xmlns="http://www.w3.org/2000/svg" xmlns:xlink="http://www.w3.org/1999/xlink" version="1.1"><g stroke-width="1" stroke-linejoin="bevel"><path d="M488 307L402 397L494 387Z" fill="#ffffb1" stroke="#ffffb1"></path><path d="M488 307L366 329L402 397Z" fill="#ffff8f" stroke="#ffff8f"></path><path d="M488 307L368 228L366 329Z" fill="#ffff7d" stroke="#ffff7d"></path><path d="M368 228L326 262L366 329Z" fill="#ffffac" stroke="#ffffac"></path><path d="M323 481L381 484L402 397Z" fill="#ffffa0" stroke="#ffffa0"></path><path d="M290 376L402 397L366 329Z" fill="#ffff7d" stroke="#ffff7d"></path><path d="M402 397L476 500L494 387Z" fill="#ffff77" stroke="#ffff77"></path><path d="M381 484L476 500L402 397Z" fill="#ffff77" stroke="#ffff77"></path><path d="M326 262L290 376L366 329Z" fill="#ffff77" stroke="#ffff77"></path><path d="M621 425L615 315L494 387Z" fill="#ffff9b" stroke="#ffff9b"></path><path d="M494 387L615 315L488 307Z" fill="#ffff83" stroke="#ffff83"></path><path d="M488 307L477 169L368 228Z" fill="#ffff89" stroke="#ffff89"></path><path d="M290 376L323 481L402 397Z" fill="#ffffa0" stroke="#ffffa0"></path><path d="M363 600L480 600L476 500Z" fill="#ffffac" stroke="#ffffac"></path><path d="M637 227L477 169L488 307Z" fill="#ffff7d" stroke="#ffff7d"></path><path d="M476 500L621 425L494 387Z" fill="#ffff8f" stroke="#ffff8f"></path><path d="M665 210L637 227L707 275Z" fill="#ffffb1" stroke="#ffffb1"></path><path d="M615 315L637 227L488 307Z" fill="#ffffa0" stroke="#ffffa0"></path><path d="M215 222L223 276L326 262Z" fill="#ffff9b" stroke="#ffff9b"></path><path d="M326 262L223 276L290 376Z" fill="#ffffa6" stroke="#ffffa6"></path><path d="M290 376L208 479L323 481Z" fill="#ffff95" stroke="#ffff95"></path><path d="M261 173L326 262L368 228Z" fill="#ffffa6" stroke="#ffffa6"></path><path d="M616 91L482 119L477 169Z" fill="#ffffa0" stroke="#ffffa0"></path><path d="M477 169L401 108L368 228Z" fill="#ffff89" stroke="#ffff89"></path><path d="M482 119L401 108L477 169Z" fill="#ffff95" stroke="#ffff95"></path><path d="M476 500L638 508L621 425Z" fill="#ffff83" stroke="#ffff83"></path><path d="M707 275L637 227L615 315Z" fill="#ffff95" stroke="#ffff95"></path><path d="M363 600L476 500L381 484Z" fill="#ffff83" stroke="#ffff83"></path><path d="M476 500L588 600L638 508Z" fill="#ffff89" stroke="#ffff89"></path><path d="M312 115L261 173L368 228Z" fill="#ffff83" stroke="#ffff83"></path><path d="M118 385L187 363L64 263Z" fill="#ffff8f" stroke="#ffff8f"></path><path d="M223 276L187 363L290 376Z" fill="#ffff89" stroke="#ffff89"></path><path d="M331 600L363 600L323 481Z" fill="#ffff89" stroke="#ffff89"></path><path d="M323 481L363 600L381 484Z" fill="#ffff7d" stroke="#ffff7d"></path><path d="M261 173L215 222L326 262Z" fill="#ffffac" stroke="#ffffac"></path><path d="M707 275L615 315L725 398Z" fill="#ffffa0" stroke="#ffffa0"></path><path d="M637 227L616 91L477 169Z" fill="#ffff9b" stroke="#ffff9b"></path><path d="M187 363L208 479L290 376Z" fill="#ffffa6" stroke="#ffffa6"></path><path d="M401 108L312 115L368 228Z" fill="#ffffa0" stroke="#ffffa0"></path><path d="M261 173L194 94L215 222Z" fill="#ffffa6" stroke="#ffffa6"></path><path d="M208 479L331 600L323 481Z" fill="#ffffac" stroke="#ffffac"></path><path d="M725 398L615 315L621 425Z" fill="#ffff7d" stroke="#ffff7d"></path><path d="M729 466L725 398L621 425Z" fill="#ffff7d" stroke="#ffff7d"></path><path d="M480 600L588 600L476 500Z" fill="#ffff77" stroke="#ffff77"></path><path d="M638 508L729 466L621 425Z" fill="#ffff95" stroke="#ffff95"></path><path d="M692 600L729 466L638 508Z" fill="#ffff95" stroke="#ffff95"></path><path d="M690 72L616 91L665 210Z" fill="#ffffb1" stroke="#ffffb1"></path><path d="M665 210L616 91L637 227Z" fill="#ffffb1" stroke="#ffffb1"></path><path d="M482 119L425 0L401 108Z" fill="#ffff77" stroke="#ffff77"></path><path d="M401 108L425 0L312 115Z" fill="#ffff77" stroke="#ffff77"></path><path d="M187 363L118 385L208 479Z" fill="#ffffa6" stroke="#ffffa6"></path><path d="M85 234L187 363L223 276Z" fill="#ffff9b" stroke="#ffff9b"></path><path d="M729 466L766 418L725 398Z" fill="#ffffa6" stroke="#ffffa6"></path><path d="M725 398L779 322L707 275Z" fill="#ffff7d" stroke="#ffff7d"></path><path d="M766 418L779 322L725 398Z" fill="#ffff95" stroke="#ffff95"></path><path d="M763 86L690 72L665 210Z" fill="#ffff9b" stroke="#ffff9b"></path><path d="M512 0L425 0L482 119Z" fill="#ffff77" stroke="#ffff77"></path><path d="M588 600L692 600L638 508Z" fill="#ffff95" stroke="#ffff95"></path><path d="M729 466L821 511L766 418Z" fill="#ffffb1" stroke="#ffffb1"></path><path d="M208 479L190 600L331 600Z" fill="#ffff95" stroke="#ffff95"></path><path d="M131 600L190 600L208 479Z" fill="#ffff9b" stroke="#ffff9b"></path><path d="M616 91L512 0L482 119Z" fill="#ffffac" stroke="#ffffac"></path><path d="M275 0L194 94L312 115Z" fill="#ffff95" stroke="#ffff95"></path><path d="M312 115L194 94L261 173Z" fill="#ffff89" stroke="#ffff89"></path><path d="M215 222L85 234L223 276Z" fill="#ffff77" stroke="#ffff77"></path><path d="M796 213L665 210L707 275Z" fill="#ffff83" stroke="#ffff83"></path><path d="M616 91L589 0L512 0Z" fill="#ffff8f" stroke="#ffff8f"></path><path d="M194 94L85 234L215 222Z" fill="#ffffa6" stroke="#ffffa6"></path><path d="M779 322L796 213L707 275Z" fill="#ffff89" stroke="#ffff89"></path><path d="M900 277L796 213L779 322Z" fill="#ffff9b" stroke="#ffff9b"></path><path d="M690 72L589 0L616 91Z" fill="#ffffa6" stroke="#ffffa6"></path><path d="M425 0L275 0L312 115Z" fill="#ffff83" stroke="#ffff83"></path><path d="M85 234L64 263L187 363Z" fill="#ffff8f" stroke="#ffff8f"></path><path d="M84 527L131 600L208 479Z" fill="#ffffa6" stroke="#ffffa6"></path><path d="M84 527L208 479L118 385Z" fill="#ffff9b" stroke="#ffff9b"></path><path d="M0 400L84 527L118 385Z" fill="#ffffb1" stroke="#ffffb1"></path><path d="M275 0L233 0L194 94Z" fill="#ffffb1" stroke="#ffffb1"></path><path d="M194 94L67 107L85 234Z" fill="#ffffa6" stroke="#ffffa6"></path><path d="M0 174L0 331L64 263Z" fill="#ffffac" stroke="#ffffac"></path><path d="M798 600L821 511L729 466Z" fill="#ffffac" stroke="#ffffac"></path><path d="M766 418L900 412L779 322Z" fill="#ffff89" stroke="#ffff89"></path><path d="M796 213L763 86L665 210Z" fill="#ffffa0" stroke="#ffffa0"></path><path d="M690 72L705 0L589 0Z" fill="#ffff8f" stroke="#ffff8f"></path><path d="M692 600L798 600L729 466Z" fill="#ffffa0" stroke="#ffffa0"></path><path d="M763 86L705 0L690 72Z" fill="#ffffa6" stroke="#ffffa6"></path><path d="M0 174L64 263L85 234Z" fill="#ffff7d" stroke="#ffff7d"></path><path d="M64 263L0 331L118 385Z" fill="#ffff7d" stroke="#ffff7d"></path><path d="M0 331L0 400L118 385Z" fill="#ffff8f" stroke="#ffff8f"></path><path d="M84 527L0 600L131 600Z" fill="#ffff8f" stroke="#ffff8f"></path><path d="M109 0L67 107L194 94Z" fill="#ffff89" stroke="#ffff89"></path><path d="M900 466L766 418L821 511Z" fill="#ffff77" stroke="#ffff77"></path><path d="M900 466L900 412L766 418Z" fill="#ffffa6" stroke="#ffffa6"></path><path d="M796 213L900 73L763 86Z" fill="#ffff8f" stroke="#ffff8f"></path><path d="M900 412L900 277L779 322Z" fill="#ffff89" stroke="#ffff89"></path><path d="M763 86L828 0L705 0Z" fill="#ffff95" stroke="#ffff95"></path><path d="M900 600L900 466L821 511Z" fill="#ffffa6" stroke="#ffffa6"></path><path d="M67 107L0 174L85 234Z" fill="#ffff89" stroke="#ffff89"></path><path d="M900 277L900 208L796 213Z" fill="#ffffac" stroke="#ffffac"></path><path d="M0 400L0 532L84 527Z" fill="#ffff95" stroke="#ffff95"></path><path d="M233 0L109 0L194 94Z" fill="#ffff9b" stroke="#ffff9b"></path><path d="M67 107L0 69L0 174Z" fill="#ffff95" stroke="#ffff95"></path><path d="M0 532L0 600L84 527Z" fill="#ffff7d" stroke="#ffff7d"></path><path d="M798 600L900 600L821 511Z" fill="#ffff9b" stroke="#ffff9b"></path><path d="M900 73L828 0L763 86Z" fill="#ffff9b" stroke="#ffff9b"></path><path d="M109 0L0 69L67 107Z" fill="#ffff9b" stroke="#ffff9b"></path><path d="M900 208L900 73L796 213Z" fill="#ffffa6" stroke="#ffffa6"></path><path d="M109 0L0 0L0 69Z" fill="#ffff7d" stroke="#ffff7d"></path><path d="M900 73L900 0L828 0Z" fill="#ffff9b" stroke="#ffff9b"></path></g></svg>